<?xml version="1.0" encoding="UTF-8" standalone="no"?>
<!-- Uploaded to: SVG Repo, www.svgrepo.com, Generator: SVG Repo Mixer Tools -->

<svg
   fill="#000000"
   width="800px"
   height="800px"
   viewBox="0 0 1024 1024"
   class="icon"
   version="1.1"
   id="svg1"
   sodipodi:docname="disconnect.svg"
   inkscape:version="1.3 (0e150ed6c4, 2023-07-21)"
   xmlns:inkscape="http://www.inkscape.org/namespaces/inkscape"
   xmlns:sodipodi="http://sodipodi.sourceforge.net/DTD/sodipodi-0.dtd"
   xmlns="http://www.w3.org/2000/svg"
   xmlns:svg="http://www.w3.org/2000/svg">
  <defs
     id="defs1" />
  <sodipodi:namedview
     id="namedview1"
     pagecolor="#505050"
     bordercolor="#eeeeee"
     borderopacity="1"
     inkscape:showpageshadow="0"
     inkscape:pageopacity="0"
     inkscape:pagecheckerboard="0"
     inkscape:deskcolor="#505050"
     inkscape:zoom="0.66379649"
     inkscape:cx="370.59551"
     inkscape:cy="523.50382"
     inkscape:window-width="1920"
     inkscape:window-height="986"
     inkscape:window-x="-11"
     inkscape:window-y="-11"
     inkscape:window-maximized="1"
     inkscape:current-layer="svg1" />
  <path
     d="m 917.7,148.8 -42.4,-42.4 c -1.6,-1.6 -3.6,-2.3 -5.7,-2.3 -2.1,0 -4.1,0.8 -5.7,2.3 l -76.1,76.1 c -33.08223,-22.4147 -72.13941,-34.36529 -112.1,-34.3 -51.2,0 -102.4,19.5 -141.5,58.6 L 432.3,308.7 c -3.09867,3.12938 -3.09867,8.17062 0,11.3 L 704,591.7 c 1.6,1.6 3.6,2.3 5.7,2.3 2,0 4.1,-0.8 5.7,-2.3 L 817.3,489.8 c 68.9,-69 77,-175.7 24.3,-253.5 l 76.1,-76.1 c 3.1,-3.2 3.1,-8.3 0,-11.4 z M 578.9,546.7 c -3.12938,-3.09867 -8.17062,-3.09867 -11.3,0 L 501,613.3 410.7,523 477.4,456.3 c 3.1,-3.1 3.1,-8.2 0,-11.3 L 441,408.6 c -3.12938,-3.09867 -8.17062,-3.09867 -11.3,0 l -66.7,66.7 -43,-43 c -1.50839,-1.50957 -3.56636,-2.33997 -5.7,-2.3 -2,0 -4.1,0.8 -5.7,2.3 L 206.8,534.2 c -68.9,69 -77,175.7 -24.3,253.5 l -76.1,76.1 c -3.09867,3.12938 -3.09867,8.17062 0,11.3 l 42.4,42.4 c 1.6,1.6 3.6,2.3 5.7,2.3 2.1,0 4.1,-0.8 5.7,-2.3 l 76.1,-76.1 c 33.7,22.9 72.9,34.3 112.1,34.3 51.2,0 102.4,-19.5 141.5,-58.6 L 591.8,715.2 c 3.1,-3.1 3.1,-8.2 0,-11.3 l -43,-43 66.7,-66.7 c 3.1,-3.1 3.1,-8.2 0,-11.3 z"
     id="path1"
     style="fill:#d40000;stroke:#1a1a1a;stroke-width:44.8;stroke-dasharray:none"
     sodipodi:nodetypes="ssscccsccssccccsccccssccccccccccssccsssscscc" />
</svg>
