<?xml version="1.0" encoding="UTF-8" standalone="no"?>
<!-- Uploaded to: SVG Repo, www.svgrepo.com, Transformed by: SVG Repo Mixer Tools -->

<svg
   height="27.20064"
   width="27.20064"
   version="1.1"
   id="图层_1"
   viewBox="0 0 17.0004 17.0004"
   enable-background="new 0 0 40 40"
   xml:space="preserve"
   fill="#e0e0e0"
   stroke="#e0e0e0"
   stroke-width="0.0004"
   sodipodi:docname="focus_off.svg"
   inkscape:version="1.4.2 (f4327f4, 2025-05-13)"
   xmlns:inkscape="http://www.inkscape.org/namespaces/inkscape"
   xmlns:sodipodi="http://sodipodi.sourceforge.net/DTD/sodipodi-0.dtd"
   xmlns="http://www.w3.org/2000/svg"
   xmlns:svg="http://www.w3.org/2000/svg"><defs
   id="defs10" /><sodipodi:namedview
   id="namedview10"
   pagecolor="#505050"
   bordercolor="#eeeeee"
   borderopacity="1"
   inkscape:showpageshadow="0"
   inkscape:pageopacity="0"
   inkscape:pagecheckerboard="0"
   inkscape:deskcolor="#505050"
   inkscape:zoom="12.734375"
   inkscape:cx="13.703067"
   inkscape:cy="13.62454"
   inkscape:window-width="1920"
   inkscape:window-height="1017"
   inkscape:window-x="-8"
   inkscape:window-y="-8"
   inkscape:window-maximized="1"
   inkscape:current-layer="图层_1" />

<g
   id="SVGRepo_bgCarrier"
   stroke-width="0"
   transform="translate(-11.4998,-11.4998)" />

<g
   id="SVGRepo_tracerCarrier"
   stroke-linecap="round"
   stroke-linejoin="round"
   stroke="#cccccc"
   stroke-width="1.44"
   transform="translate(-11.4998,-11.4998)" />

<g
   id="SVGRepo_iconCarrier"
   transform="translate(-11.4998,-11.4998)"> <g
   id="g10"> <g
   id="g9"> <g
   id="g8"> <g
   id="g1"> <path
   fill="#e0e0e0"
   d="m 20,26.5 c -3.6,0 -6.5,-2.9 -6.5,-6.5 0,-3.6 2.9,-6.5 6.5,-6.5 3.6,0 6.5,2.9 6.5,6.5 0,3.6 -2.9,6.5 -6.5,6.5 z m 0,-12 c -3,0 -5.5,2.5 -5.5,5.5 0,3 2.5,5.5 5.5,5.5 3,0 5.5,-2.5 5.5,-5.5 0,-3 -2.5,-5.5 -5.5,-5.5 z"
   id="path1" /> </g> <g
   id="g4"> <g
   id="g2"> <path
   fill="#e0e0e0"
   d="m 20,16.5 c -0.3,0 -0.5,-0.2 -0.5,-0.5 v -4 c 0,-0.3 0.2,-0.5 0.5,-0.5 0.3,0 0.5,0.2 0.5,0.5 v 4 c 0,0.3 -0.2,0.5 -0.5,0.5 z"
   id="path2" /> </g> <g
   id="g3"> <path
   fill="#e0e0e0"
   d="m 20,28.5 c -0.3,0 -0.5,-0.2 -0.5,-0.5 v -4 c 0,-0.3 0.2,-0.5 0.5,-0.5 0.3,0 0.5,0.2 0.5,0.5 v 4 c 0,0.3 -0.2,0.5 -0.5,0.5 z"
   id="path3" /> </g> </g> <g
   id="g7"> <g
   id="g5"> <path
   fill="#e0e0e0"
   d="m 28,20.5 h -4 c -0.3,0 -0.5,-0.2 -0.5,-0.5 0,-0.3 0.2,-0.5 0.5,-0.5 h 4 c 0.3,0 0.5,0.2 0.5,0.5 0,0.3 -0.2,0.5 -0.5,0.5 z"
   id="path4" /> </g> <g
   id="g6"> <path
   fill="#e0e0e0"
   d="m 16,20.5 h -4 c -0.3,0 -0.5,-0.2 -0.5,-0.5 0,-0.3 0.2,-0.5 0.5,-0.5 h 4 c 0.3,0 0.5,0.2 0.5,0.5 0,0.3 -0.2,0.5 -0.5,0.5 z"
   id="path5" /> </g> </g> </g> </g> </g> </g>

<path
   d="M 5.3551825,7.8382549 4.153995,8.1812737 c 0.1999937,0.7 0.51475,1.2870625 0.89475,1.7748748 L 4.5275075,10.477386 5.41132,11.361198 5.9386638,10.833855 c 0.6161562,0.467262 1.297875,0.754187 1.9409375,0.866687 v 0.683625 h 1.25 v -0.683625 c 0.6429999,-0.112487 1.3247497,-0.399437 1.9409377,-0.866687 l 0.527343,0.527343 0.883813,-0.883812 -0.521238,-0.5212375 C 12.340482,9.468305 12.65527,8.8812112 12.855207,8.1812737 L 11.65402,7.8382549 C 11.10677,9.75363 9.4420826,10.50913 8.5045826,10.50913 7.5670825,10.50913 5.902395,9.75363 5.355145,7.8382549 Z"
   fill="#e0e0e0"
   fill-opacity="0.99608"
   fill-rule="evenodd"
   id="path1-9"
   style="stroke-width:0.00025" /></svg>
