<?xml version="1.0" encoding="UTF-8" standalone="no"?>
<!-- Uploaded to: SVG Repo, www.svgrepo.com, Transformed by: SVG Repo Mixer Tools -->

<svg
   height="27.20064"
   width="27.20064"
   version="1.1"
   id="图层_1"
   viewBox="0 0 17.0004 17.0004"
   enable-background="new 0 0 40 40"
   xml:space="preserve"
   fill="#e0e0e0"
   stroke="#e0e0e0"
   stroke-width="0.0004"
   sodipodi:docname="focus.svg"
   inkscape:version="1.4.2 (f4327f4, 2025-05-13)"
   xmlns:inkscape="http://www.inkscape.org/namespaces/inkscape"
   xmlns:sodipodi="http://sodipodi.sourceforge.net/DTD/sodipodi-0.dtd"
   xmlns="http://www.w3.org/2000/svg"
   xmlns:svg="http://www.w3.org/2000/svg"><defs
   id="defs10" /><sodipodi:namedview
   id="namedview10"
   pagecolor="#505050"
   bordercolor="#eeeeee"
   borderopacity="1"
   inkscape:showpageshadow="0"
   inkscape:pageopacity="0"
   inkscape:pagecheckerboard="0"
   inkscape:deskcolor="#505050"
   inkscape:zoom="12.734375"
   inkscape:cx="13.703067"
   inkscape:cy="13.62454"
   inkscape:window-width="1920"
   inkscape:window-height="1017"
   inkscape:window-x="-8"
   inkscape:window-y="-8"
   inkscape:window-maximized="1"
   inkscape:current-layer="图层_1" />

<g
   id="SVGRepo_bgCarrier"
   stroke-width="0"
   transform="translate(-11.4998,-11.4998)" />

<g
   id="SVGRepo_tracerCarrier"
   stroke-linecap="round"
   stroke-linejoin="round"
   stroke="#cccccc"
   stroke-width="1.44"
   transform="translate(-11.4998,-11.4998)" />

<g
   id="SVGRepo_iconCarrier"
   transform="translate(-11.4998,-11.4998)"> <g
   id="g10"> <g
   id="g9"> <g
   id="g8"> <g
   id="g1"> <path
   fill="#e0e0e0"
   d="m 20,26.5 c -3.6,0 -6.5,-2.9 -6.5,-6.5 0,-3.6 2.9,-6.5 6.5,-6.5 3.6,0 6.5,2.9 6.5,6.5 0,3.6 -2.9,6.5 -6.5,6.5 z m 0,-12 c -3,0 -5.5,2.5 -5.5,5.5 0,3 2.5,5.5 5.5,5.5 3,0 5.5,-2.5 5.5,-5.5 0,-3 -2.5,-5.5 -5.5,-5.5 z"
   id="path1" /> </g> <g
   id="g4"> <g
   id="g2"> <path
   fill="#e0e0e0"
   d="m 20,16.5 c -0.3,0 -0.5,-0.2 -0.5,-0.5 v -4 c 0,-0.3 0.2,-0.5 0.5,-0.5 0.3,0 0.5,0.2 0.5,0.5 v 4 c 0,0.3 -0.2,0.5 -0.5,0.5 z"
   id="path2" /> </g> <g
   id="g3"> <path
   fill="#e0e0e0"
   d="m 20,28.5 c -0.3,0 -0.5,-0.2 -0.5,-0.5 v -4 c 0,-0.3 0.2,-0.5 0.5,-0.5 0.3,0 0.5,0.2 0.5,0.5 v 4 c 0,0.3 -0.2,0.5 -0.5,0.5 z"
   id="path3" /> </g> </g> <g
   id="g7"> <g
   id="g5"> <path
   fill="#e0e0e0"
   d="m 28,20.5 h -4 c -0.3,0 -0.5,-0.2 -0.5,-0.5 0,-0.3 0.2,-0.5 0.5,-0.5 h 4 c 0.3,0 0.5,0.2 0.5,0.5 0,0.3 -0.2,0.5 -0.5,0.5 z"
   id="path4" /> </g> <g
   id="g6"> <path
   fill="#e0e0e0"
   d="m 16,20.5 h -4 c -0.3,0 -0.5,-0.2 -0.5,-0.5 0,-0.3 0.2,-0.5 0.5,-0.5 h 4 c 0.3,0 0.5,0.2 0.5,0.5 0,0.3 -0.2,0.5 -0.5,0.5 z"
   id="path5" /> </g> </g> </g> </g> </g> </g>

<path
   d="m 8.5045444,4.8036842 c -1.5979376,0 -3.6191876,1.2173125 -4.3469376,3.5656875 a 0.62506251,0.62506251 0 0 0 -0.00366,0.3564438 c 0.70275,2.4596245 2.7880625,3.5778745 4.3505626,3.5778745 1.5624996,0 3.6478126,-1.11825 4.3505626,-3.5778745 a 0.62506251,0.62506251 0 0 0 0,-0.3454563 C 12.167382,6.0131092 10.100944,4.8036717 8.5045069,4.8036717 Z m 0,1.25 A 2.5,2.5 0 0 1 11.004544,8.5536843 2.5,2.5 0 0 1 8.5045444,11.053684 2.5,2.5 0 0 1 6.0045443,8.5536843 2.5,2.5 0 0 1 8.5045444,6.0536842 Z m 0,1.25 a 1.25,1.25 0 0 0 -1.2500001,1.2500001 1.25,1.25 0 0 0 1.2500001,1.2499997 1.25,1.25 0 0 0 1.25,-1.2499997 1.25,1.25 0 0 0 -1.25,-1.2500001 z"
   fill="#e0e0e0"
   fill-opacity="0.99608"
   fill-rule="evenodd"
   id="path1-0"
   style="stroke-width:0.00025" /></svg>
