<?xml version="1.0" encoding="UTF-8" standalone="no"?>
<!-- Created with Inkscape (http://www.inkscape.org/) -->

<svg
   width="3.7040215mm"
   height="3.1750097mm"
   viewBox="0 0 3.7040214 3.1750098"
   version="1.1"
   id="svg1"
   xml:space="preserve"
   inkscape:export-filename="lock_close.svg"
   inkscape:export-xdpi="96"
   inkscape:export-ydpi="96"
   xmlns:inkscape="http://www.inkscape.org/namespaces/inkscape"
   xmlns:sodipodi="http://sodipodi.sourceforge.net/DTD/sodipodi-0.dtd"
   xmlns="http://www.w3.org/2000/svg"
   xmlns:svg="http://www.w3.org/2000/svg"><sodipodi:namedview
     id="namedview1"
     pagecolor="#505050"
     bordercolor="#eeeeee"
     borderopacity="1"
     inkscape:showpageshadow="0"
     inkscape:pageopacity="0"
     inkscape:pagecheckerboard="0"
     inkscape:deskcolor="#505050"
     inkscape:document-units="mm"
     showguides="true" /><defs
     id="defs1" /><g
     inkscape:label="Layer 1"
     inkscape:groupmode="layer"
     id="layer1"
     transform="translate(-86.012053,-338.71449)"><g
       id="g7"
       transform="translate(-8.2444949,-3.7262926)"><rect
         style="fill:#ffffff;stroke:none;stroke-width:0.0426489"
         id="rect6"
         width="2.2574024"
         height="1.3710181"
         x="94.979858"
         y="344.24506" /><path
         id="path6"
         style="fill:none;stroke:#ffffff;stroke-width:0.327438;stroke-dasharray:none"
         d="m 95.381588,343.33122 c -0.0081,-0.40142 0.325477,-0.72698 0.726973,-0.72698 0.401497,0 0.735033,0.32556 0.726975,0.72698 h 3e-6 l -0.02317,1.15443 h -1.407601"
         sodipodi:nodetypes="cssscc" /></g></g><g
     inkscape:groupmode="layer"
     id="layer2"
     inkscape:label="eye"
     style="display:none"><path
       d="m 87.864004,338.7145 c -0.676461,0 -1.532123,0.51532 -1.840204,1.50947 a 0.26460979,0.26460979 0 0 0 -0.0015,0.15089 c 0.297498,1.04125 1.18028,1.51464 1.841738,1.51464 0.661459,0 1.544243,-0.47339 1.841733,-1.51464 a 0.26460979,0.26460979 0 0 0 0,-0.14624 c -0.29112,-1.00213 -1.165908,-1.51413 -1.841733,-1.51413 z m 0,0.52916 a 1.0583333,1.0583333 0 0 1 1.058333,1.05834 1.0583333,1.0583333 0 0 1 -1.058333,1.05833 1.0583333,1.0583333 0 0 1 -1.058334,-1.05833 1.0583333,1.0583333 0 0 1 1.058334,-1.05834 z m 0,0.52917 a 0.52916667,0.52916667 0 0 0 -0.529167,0.52917 0.52916667,0.52916667 0 0 0 0.529167,0.52916 0.52916667,0.52916667 0 0 0 0.529166,-0.52916 0.52916667,0.52916667 0 0 0 -0.529166,-0.52917 z"
       fill="#e0e0e0"
       fill-opacity="0.99608"
       fill-rule="evenodd"
       id="path1"
       style="stroke-width:0.264583"
       transform="translate(-86.012052,-338.71448)" /></g></svg>
